<?xml version="1.0" encoding="utf-8"?>
<!-- Generator: Adobe Illustrator 19.2.1, SVG Export Plug-In . SVG Version: 6.00 Build 0)  -->
<svg version="1.1" id="Layer_1" xmlns="http://www.w3.org/2000/svg" xmlns:xlink="http://www.w3.org/1999/xlink" x="0px" y="0px"
	 viewBox="0 0 458 76" style="enable-background:new 0 0 458 76;" xml:space="preserve">
<style type="text/css">
	.st0{fill:#43A36A;}
	.st1{fill:#474C51;}
	.st2{fill:#139E84;}
	.st3{fill:#2ECC71;}
	.st4{fill:#ECF0F1;}
</style>
<polygon class="st0" points="11.1,12.7 32.9,25.3 54.8,12.7 65.9,19.1 32.9,38.1 0,19.1 "/>
<polygon class="st1" points="11.1,25.4 32.9,12.8 54.8,25.4 65.9,19 32.9,0 0,19 "/>
<polygon class="st2" points="54.8,50.7 32.9,63.4 11.1,50.7 11.1,39.5 0,39.5 0,57.1 32.9,76.1 65.9,57.1 65.9,39.5 54.8,39.5 "/>
<polygon class="st3" points="11,12.7 0,19.1 0,36.4 11.1,36.4 11.1,25.5 22.1,19.1 "/>
<polygon class="st3" points="43.8,19.1 54.8,25.5 54.8,36.4 65.9,36.4 65.9,19.1 54.8,12.7 "/>
<g>
	<path class="st4" d="M120.8,33.3l-10.4,20.9h-5.1L95.1,33.3v24.1h-8.5V19.1h11.6l9.9,21l9.9-21h11.5v38.3h-8.5V33.3z"/>
	<path class="st4" d="M137.4,19.1h8.5v38.3h-8.5V19.1z"/>
	<path class="st4" d="M170.2,26.5v30.9h-8.5V26.5h-10.8v-7.4h30.2v7.4H170.2z"/>
	<path class="st4" d="M203.5,49.8c4.2,0,7.6-1.7,10.3-5l5.5,5.6c-4.3,4.9-9.5,7.3-15.4,7.3c-5.9,0-10.8-1.9-14.6-5.6
		c-3.8-3.7-5.7-8.4-5.7-14.1c0-5.7,1.9-10.4,5.8-14.2c3.9-3.8,8.6-5.7,14.3-5.7c6.3,0,11.5,2.4,15.8,7.2l-5.3,6
		c-2.7-3.4-6.1-5-10.1-5c-3.2,0-6,1-8.2,3.1c-2.3,2.1-3.4,4.9-3.4,8.5s1.1,6.4,3.2,8.6C197.8,48.7,200.4,49.8,203.5,49.8z"/>
	<path class="st4" d="M248.4,19.1h8.5v38.3h-8.5V42.3h-15.2v15.1h-8.5V19.1h8.5v16h15.2V19.1z"/>
	<path class="st4" d="M310.3,52.1c-3.9,3.8-8.6,5.7-14.3,5.7c-5.7,0-10.4-1.9-14.3-5.7c-3.9-3.8-5.8-8.5-5.8-14.1
		c0-5.6,1.9-10.3,5.8-14.1c3.9-3.8,8.6-5.7,14.3-5.7c5.7,0,10.4,1.9,14.3,5.7c3.9,3.8,5.8,8.5,5.8,14.1
		C316.1,43.6,314.2,48.3,310.3,52.1z M307.4,38c0-3.4-1.1-6.3-3.3-8.7c-2.2-2.4-4.9-3.6-8.1-3.6c-3.2,0-5.9,1.2-8.1,3.6
		c-2.2,2.4-3.3,5.3-3.3,8.7c0,3.4,1.1,6.3,3.3,8.7c2.2,2.4,4.9,3.6,8.1,3.6c3.2,0,5.9-1.2,8.1-3.6C306.3,44.3,307.4,41.4,307.4,38z"
		/>
	<path class="st4" d="M338.7,57.4H322V19.1h14.9c2.6,0,4.8,0.3,6.7,0.9c1.9,0.6,3.3,1.5,4.2,2.5c1.7,2,2.6,4.2,2.6,6.7
		c0,3-1,5.2-2.9,6.7c-0.7,0.5-1.1,0.8-1.4,1c-0.3,0.1-0.7,0.3-1.4,0.6c2.4,0.5,4.3,1.6,5.7,3.2c1.4,1.6,2.1,3.6,2.1,6.1
		c0,2.7-0.9,5-2.7,7.1C347.7,56.2,344,57.4,338.7,57.4z M330.5,34.6h4.1c2.4,0,4.1-0.3,5.3-0.8c1.1-0.5,1.7-1.6,1.7-3.3
		c0-1.7-0.5-2.8-1.6-3.4c-1.1-0.5-2.8-0.8-5.4-0.8h-4.1V34.6z M330.5,50.1h5.9c2.4,0,4.3-0.3,5.5-0.9c1.2-0.6,1.8-1.8,1.8-3.6
		c0-1.8-0.6-2.9-1.9-3.5c-1.3-0.6-3.4-0.8-6.2-0.8h-5V50.1z"/>
	<path class="st4" d="M385.9,19.1v7.6h-19.1v7.9H384v7.3h-17.1v7.9h19.7v7.6h-28.2V19.1H385.9z"/>
	<path class="st4" d="M423.8,31.8c0,6.1-2.4,10.1-7.3,11.9l9.7,13.7h-10.5l-8.5-12.2h-5.9v12.2h-8.5V19.1h14.5c6,0,10.2,1,12.7,3
		C422.6,24.1,423.8,27.3,423.8,31.8z M413.5,36.3c1.1-0.9,1.6-2.5,1.6-4.5c0-2.1-0.5-3.5-1.6-4.2c-1.1-0.8-3-1.1-5.8-1.1h-6.4v11.3
		h6.2C410.5,37.7,412.5,37.3,413.5,36.3z"/>
	<path class="st4" d="M446.7,26.5v30.9h-8.5V26.5h-10.8v-7.4h30.2v7.4H446.7z"/>
</g>
</svg>
